<svg xmlns="http://www.w3.org/2000/svg" viewBox="0 0 1536 1024" role="img" aria-label="Pixel command room backdrop">
  <defs>
    <linearGradient id="bg" x1="0" x2="0" y1="0" y2="1">
      <stop offset="0" stop-color="#091a31"/>
      <stop offset="0.55" stop-color="#12324d"/>
      <stop offset="1" stop-color="#1e332d"/>
    </linearGradient>
    <pattern id="grid" width="48" height="48" patternUnits="userSpaceOnUse">
      <path d="M48 0H0v48" fill="none" stroke="#ffffff" stroke-opacity="0.055" stroke-width="2"/>
    </pattern>
    <filter id="shadow" x="-20%" y="-20%" width="140%" height="150%">
      <feDropShadow dx="0" dy="18" stdDeviation="0" flood-color="#030914" flood-opacity="0.35"/>
      <feDropShadow dx="0" dy="34" stdDeviation="22" flood-color="#030914" flood-opacity="0.35"/>
    </filter>
  </defs>
  <rect width="1536" height="1024" fill="url(#bg)"/>
  <rect width="1536" height="1024" fill="url(#grid)"/>
  <rect x="96" y="88" width="1344" height="764" rx="34" fill="#071324" stroke="#d8b66a" stroke-opacity="0.34" stroke-width="8" filter="url(#shadow)"/>
  <rect x="142" y="140" width="1252" height="118" rx="18" fill="#10233b" stroke="#6fb8ff" stroke-opacity="0.42" stroke-width="4"/>
  <g fill="#6fb8ff" opacity="0.82">
    <rect x="188" y="178" width="260" height="18" rx="6"/>
    <rect x="188" y="214" width="180" height="18" rx="6" opacity="0.55"/>
    <rect x="1108" y="170" width="74" height="74" rx="14"/>
    <rect x="1206" y="170" width="74" height="74" rx="14" opacity="0.72"/>
    <rect x="1304" y="170" width="50" height="74" rx="14" opacity="0.42"/>
  </g>
  <g stroke="#f3c267" stroke-width="8" stroke-linecap="round" stroke-linejoin="round" opacity="0.88">
    <path d="M242 468h196l52-82 78 152 84-116 66 46h176" fill="none"/>
    <path d="M1012 438h212l42-70 64 118" fill="none" opacity="0.6"/>
  </g>
  <g fill="#162d47" stroke="#6fb8ff" stroke-opacity="0.28" stroke-width="4">
    <rect x="188" y="320" width="340" height="220" rx="18"/>
    <rect x="598" y="320" width="340" height="220" rx="18"/>
    <rect x="1008" y="320" width="340" height="220" rx="18"/>
  </g>
  <g fill="#f7efd7" opacity="0.72">
    <rect x="230" y="592" width="272" height="22" rx="8"/>
    <rect x="230" y="636" width="196" height="22" rx="8" opacity="0.5"/>
    <rect x="640" y="592" width="272" height="22" rx="8"/>
    <rect x="640" y="636" width="160" height="22" rx="8" opacity="0.5"/>
    <rect x="1050" y="592" width="230" height="22" rx="8"/>
    <rect x="1050" y="636" width="196" height="22" rx="8" opacity="0.5"/>
  </g>
  <g transform="translate(662 650)">
    <rect x="0" y="0" width="210" height="110" rx="16" fill="#244b6e" stroke="#d8b66a" stroke-opacity="0.45" stroke-width="4"/>
    <rect x="34" y="28" width="142" height="18" rx="6" fill="#6fb8ff"/>
    <rect x="50" y="62" width="110" height="14" rx="6" fill="#f3c267" opacity="0.78"/>
    <rect x="86" y="110" width="38" height="72" fill="#10233b"/>
    <rect x="40" y="178" width="130" height="18" rx="6" fill="#d8b66a"/>
  </g>
  <rect y="872" width="1536" height="152" fill="#3d2d24"/>
  <path d="M0 872h1536" stroke="#d8b66a" stroke-opacity="0.32" stroke-width="8"/>
</svg>
