<svg xmlns="http://www.w3.org/2000/svg" viewBox="0 0 1536 1024" role="img" aria-label="Pixel model graduation room backdrop">
  <defs>
    <linearGradient id="bg" x1="0" x2="1" y1="0" y2="1">
      <stop offset="0" stop-color="#122033"/>
      <stop offset="0.55" stop-color="#2a2e3e"/>
      <stop offset="1" stop-color="#3a2f25"/>
    </linearGradient>
    <pattern id="tile" width="52" height="52" patternUnits="userSpaceOnUse">
      <rect width="52" height="52" fill="none"/>
      <path d="M0 52h52V0" fill="none" stroke="#fff" stroke-opacity="0.045" stroke-width="2"/>
    </pattern>
  </defs>
  <rect width="1536" height="1024" fill="url(#bg)"/>
  <rect width="1536" height="1024" fill="url(#tile)"/>
  <rect x="118" y="96" width="1300" height="730" rx="36" fill="#0b1627" stroke="#f3c267" stroke-opacity="0.42" stroke-width="8"/>
  <rect x="178" y="154" width="1180" height="214" rx="24" fill="#201c22" stroke="#f3c267" stroke-opacity="0.35" stroke-width="4"/>
  <g fill="#f3c267">
    <rect x="244" y="220" width="158" height="94" rx="18" opacity="0.95"/>
    <rect x="444" y="220" width="158" height="94" rx="18" opacity="0.75"/>
    <rect x="644" y="220" width="158" height="94" rx="18" opacity="0.95"/>
    <rect x="844" y="220" width="158" height="94" rx="18" opacity="0.64"/>
    <rect x="1044" y="220" width="158" height="94" rx="18" opacity="0.95"/>
  </g>
  <g fill="#0b1627" opacity="0.9">
    <path d="M286 218h74l-38-32z"/>
    <path d="M486 218h74l-38-32z"/>
    <path d="M686 218h74l-38-32z"/>
    <path d="M886 218h74l-38-32z"/>
    <path d="M1086 218h74l-38-32z"/>
  </g>
  <g transform="translate(248 456)">
    <rect x="0" y="104" width="220" height="156" rx="22" fill="#233a55" stroke="#6fb8ff" stroke-opacity="0.3" stroke-width="4"/>
    <path d="M44 104h132l-66-58z" fill="#f3c267"/>
    <rect x="66" y="144" width="88" height="72" rx="8" fill="#f7efd7" opacity="0.84"/>
  </g>
  <g transform="translate(656 430)">
    <rect x="0" y="66" width="226" height="226" rx="28" fill="#2f5d82" stroke="#d8b66a" stroke-opacity="0.46" stroke-width="6"/>
    <circle cx="113" cy="116" r="54" fill="#6fb8ff"/>
    <path d="M56 210h114l-58 56z" fill="#f3c267"/>
    <path d="M58 54h110l-56-44z" fill="#111827"/>
  </g>
  <g transform="translate(1040 456)">
    <rect x="0" y="104" width="220" height="156" rx="22" fill="#233a55" stroke="#6fb8ff" stroke-opacity="0.3" stroke-width="4"/>
    <path d="M44 104h132l-66-58z" fill="#f3c267"/>
    <rect x="52" y="150" width="116" height="24" rx="8" fill="#f7efd7" opacity="0.84"/>
    <rect x="52" y="190" width="82" height="18" rx="8" fill="#f7efd7" opacity="0.52"/>
  </g>
  <rect y="848" width="1536" height="176" fill="#4a3428"/>
  <path d="M0 848h1536" stroke="#f3c267" stroke-opacity="0.38" stroke-width="8"/>
</svg>
