<svg xmlns="http://www.w3.org/2000/svg" viewBox="0 0 640 420" role="img" aria-label="Pixel model recipe room">
  <rect width="640" height="420" fill="#100b22"/>
  <g shape-rendering="crispEdges">
    <rect x="36" y="54" width="568" height="320" fill="#26183f" stroke="#d7a7ff" stroke-width="8"/>
    <rect x="62" y="82" width="516" height="252" fill="#3f2862"/>
    <rect x="86" y="118" width="170" height="160" fill="#161226" stroke="#e5b66a" stroke-width="6"/>
    <rect x="106" y="142" width="130" height="18" fill="#f7efd7"/>
    <rect x="106" y="176" width="92" height="14" fill="#7ad2ff"/>
    <rect x="106" y="204" width="112" height="14" fill="#c487ff"/>
    <rect x="106" y="232" width="74" height="14" fill="#75d8a7"/>
    <rect x="304" y="118" width="70" height="128" fill="#2f2150" stroke="#e5b66a" stroke-width="6"/>
    <rect x="324" y="80" width="30" height="44" fill="#8d5cff"/>
    <rect x="310" y="246" width="58" height="36" fill="#6b3fb3"/>
    <rect x="396" y="132" width="140" height="118" fill="#091522" stroke="#7ad2ff" stroke-width="6"/>
    <rect x="414" y="152" width="44" height="18" fill="#f3c267"/>
    <rect x="414" y="184" width="86" height="16" fill="#75d8a7"/>
    <rect x="414" y="214" width="66" height="16" fill="#ff8b8b"/>
    <rect x="86" y="304" width="448" height="30" fill="#1d132f"/>
    <rect x="286" y="278" width="36" height="36" fill="#f3c267"/>
    <rect x="334" y="278" width="36" height="36" fill="#75d8a7"/>
  </g>
</svg>
