<svg xmlns="http://www.w3.org/2000/svg" viewBox="0 0 1536 1024" role="img" aria-label="Pixel runtime monitoring room backdrop">
  <defs>
    <linearGradient id="bg" x1="0" x2="0" y1="0" y2="1">
      <stop offset="0" stop-color="#06182d"/>
      <stop offset="0.58" stop-color="#0c263a"/>
      <stop offset="1" stop-color="#142a25"/>
    </linearGradient>
    <pattern id="grid" width="44" height="44" patternUnits="userSpaceOnUse">
      <path d="M44 0H0v44" fill="none" stroke="#ffffff" stroke-opacity="0.05" stroke-width="2"/>
    </pattern>
  </defs>
  <rect width="1536" height="1024" fill="url(#bg)"/>
  <rect width="1536" height="1024" fill="url(#grid)"/>
  <rect x="104" y="100" width="1328" height="744" rx="34" fill="#071424" stroke="#6fb8ff" stroke-opacity="0.28" stroke-width="8"/>
  <g transform="translate(178 164)">
    <rect width="350" height="524" rx="24" fill="#10233b" stroke="#d8b66a" stroke-opacity="0.28" stroke-width="4"/>
    <rect x="48" y="58" width="254" height="48" rx="12" fill="#6fb8ff" opacity="0.76"/>
    <rect x="48" y="144" width="254" height="34" rx="10" fill="#f3c267" opacity="0.9"/>
    <rect x="48" y="208" width="196" height="34" rx="10" fill="#f3c267" opacity="0.55"/>
    <rect x="48" y="320" width="254" height="132" rx="18" fill="#08101d"/>
    <path d="M74 406h42l38-56 42 72 52-96 48 80" fill="none" stroke="#6fb8ff" stroke-width="10" stroke-linecap="round"/>
  </g>
  <g transform="translate(604 164)">
    <rect width="350" height="524" rx="24" fill="#10233b" stroke="#d8b66a" stroke-opacity="0.28" stroke-width="4"/>
    <g fill="#6fb8ff">
      <rect x="60" y="70" width="230" height="34" rx="10"/>
      <rect x="60" y="132" width="180" height="34" rx="10" opacity="0.65"/>
      <rect x="60" y="194" width="252" height="34" rx="10" opacity="0.4"/>
    </g>
    <g transform="translate(76 304)" fill="#f3c267">
      <rect x="0" y="88" width="48" height="80" rx="8"/>
      <rect x="72" y="36" width="48" height="132" rx="8"/>
      <rect x="144" y="68" width="48" height="100" rx="8"/>
    </g>
  </g>
  <g transform="translate(1030 164)">
    <rect width="350" height="524" rx="24" fill="#10233b" stroke="#d8b66a" stroke-opacity="0.28" stroke-width="4"/>
    <circle cx="175" cy="166" r="92" fill="#08101d" stroke="#6fb8ff" stroke-opacity="0.6" stroke-width="10"/>
    <path d="M175 166l64-42" stroke="#f3c267" stroke-width="14" stroke-linecap="round"/>
    <rect x="72" y="312" width="206" height="34" rx="10" fill="#6fb8ff" opacity="0.78"/>
    <rect x="72" y="374" width="148" height="34" rx="10" fill="#f3c267" opacity="0.72"/>
  </g>
  <g opacity="0.78">
    <path d="M528 420h76" stroke="#6fb8ff" stroke-width="14" stroke-linecap="round"/>
    <path d="M954 420h76" stroke="#6fb8ff" stroke-width="14" stroke-linecap="round"/>
    <circle cx="566" cy="420" r="18" fill="#f3c267"/>
    <circle cx="992" cy="420" r="18" fill="#f3c267"/>
  </g>
  <rect y="856" width="1536" height="168" fill="#3d2d24"/>
  <path d="M0 856h1536" stroke="#6fb8ff" stroke-opacity="0.22" stroke-width="8"/>
</svg>
